<mxfile host="app.diagrams.net" modified="2023-01-10T09:58:14.302Z" agent="5.0 (Macintosh; Intel Mac OS X 10_15_7) AppleWebKit/537.36 (KHTML, like Gecko) Chrome/108.0.0.0 Safari/537.36" version="20.7.4" etag="zZtUdA-gC16jgU7qnt73" type="github">
  <diagram id="64ADKAVjYD1-oNhS0CQX" name="第 1 页">
    <mxGraphModel dx="1306" dy="836" grid="1" gridSize="10" guides="1" tooltips="1" connect="1" arrows="1" fold="1" page="1" pageScale="1" pageWidth="827" pageHeight="1169" math="0" shadow="0">
      <root>
        <mxCell id="0" />
        <mxCell id="1" parent="0" />
        <mxCell id="bzgshtGKe2SA54a5qkRp-46" value="&lt;div class=&quot;lake-content&quot;&gt;&lt;p style=&quot;margin: 0; padding: 0; min-height: 24px&quot; class=&quot;ne-p&quot; id=&quot;u52d2b0ea&quot;&gt;&lt;span class=&quot;ne-text&quot;&gt;Zenlayer&lt;/span&gt;&lt;/p&gt;&lt;div class=&quot;lake-content&quot;&gt;&lt;p style=&quot;margin: 0; padding: 0; min-height: 24px&quot; class=&quot;ne-p&quot; id=&quot;uba7138e9&quot;&gt;&lt;span class=&quot;ne-text&quot;&gt;Lagos&lt;/span&gt;&lt;/p&gt;&lt;/div&gt;&lt;/div&gt;" style="rounded=0;whiteSpace=wrap;html=1;fontSize=17;verticalAlign=top;fontStyle=1" vertex="1" parent="1">
          <mxGeometry x="910" y="370" width="270" height="400" as="geometry" />
        </mxCell>
        <mxCell id="bzgshtGKe2SA54a5qkRp-15" value="Azure&lt;br style=&quot;font-size: 17px;&quot;&gt;MainOne" style="rounded=0;whiteSpace=wrap;html=1;fontStyle=1;verticalAlign=top;fontSize=17;" vertex="1" parent="1">
          <mxGeometry x="1230" y="190" width="340" height="580" as="geometry" />
        </mxCell>
        <mxCell id="bzgshtGKe2SA54a5qkRp-22" value="" style="rounded=0;whiteSpace=wrap;html=1;fillColor=#ffe6cc;strokeColor=#d79b00;" vertex="1" parent="1">
          <mxGeometry x="1350" y="280" width="120" height="210" as="geometry" />
        </mxCell>
        <mxCell id="bzgshtGKe2SA54a5qkRp-1" value="AWS&lt;br style=&quot;font-size: 17px;&quot;&gt;Ireland" style="rounded=0;whiteSpace=wrap;html=1;align=center;verticalAlign=top;fontStyle=1;fontSize=17;" vertex="1" parent="1">
          <mxGeometry x="130" y="190" width="530" height="580" as="geometry" />
        </mxCell>
        <mxCell id="bzgshtGKe2SA54a5qkRp-6" value="" style="rounded=0;whiteSpace=wrap;html=1;fillColor=#d5e8d4;strokeColor=#82b366;" vertex="1" parent="1">
          <mxGeometry x="490.5" y="530" width="135" height="210" as="geometry" />
        </mxCell>
        <mxCell id="bzgshtGKe2SA54a5qkRp-7" value="" style="rounded=0;whiteSpace=wrap;html=1;fillColor=#ffe6cc;strokeColor=#d79b00;" vertex="1" parent="1">
          <mxGeometry x="490" y="280" width="135" height="210" as="geometry" />
        </mxCell>
        <mxCell id="bzgshtGKe2SA54a5qkRp-3" value="nginx&amp;nbsp;172.29.204.127" style="aspect=fixed;perimeter=ellipsePerimeter;html=1;align=center;shadow=0;dashed=0;spacingTop=3;image;image=img/lib/active_directory/generic_server.svg;" vertex="1" parent="1">
          <mxGeometry x="544" y="300" width="28.000000000000004" height="50" as="geometry" />
        </mxCell>
        <mxCell id="bzgshtGKe2SA54a5qkRp-43" style="edgeStyle=orthogonalEdgeStyle;curved=1;rounded=0;orthogonalLoop=1;jettySize=auto;html=1;entryX=0.995;entryY=0.63;entryDx=0;entryDy=0;entryPerimeter=0;fontSize=17;strokeColor=#009900;strokeWidth=2;" edge="1" parent="1" source="bzgshtGKe2SA54a5qkRp-4" target="bzgshtGKe2SA54a5qkRp-12">
          <mxGeometry relative="1" as="geometry" />
        </mxCell>
        <mxCell id="bzgshtGKe2SA54a5qkRp-45" style="edgeStyle=orthogonalEdgeStyle;curved=1;rounded=0;orthogonalLoop=1;jettySize=auto;html=1;entryX=0.995;entryY=0.63;entryDx=0;entryDy=0;entryPerimeter=0;fontSize=17;strokeColor=#009900;strokeWidth=2;" edge="1" parent="1" source="bzgshtGKe2SA54a5qkRp-4" target="bzgshtGKe2SA54a5qkRp-11">
          <mxGeometry relative="1" as="geometry" />
        </mxCell>
        <mxCell id="bzgshtGKe2SA54a5qkRp-4" value="nginx 172.29.203.200" style="aspect=fixed;perimeter=ellipsePerimeter;html=1;align=center;shadow=0;dashed=0;spacingTop=3;image;image=img/lib/active_directory/generic_server.svg;" vertex="1" parent="1">
          <mxGeometry x="544" y="640" width="28.000000000000004" height="50" as="geometry" />
        </mxCell>
        <mxCell id="bzgshtGKe2SA54a5qkRp-42" style="edgeStyle=orthogonalEdgeStyle;curved=1;rounded=0;orthogonalLoop=1;jettySize=auto;html=1;entryX=0.995;entryY=0.63;entryDx=0;entryDy=0;entryPerimeter=0;fontSize=17;strokeColor=#009900;strokeWidth=2;" edge="1" parent="1" source="bzgshtGKe2SA54a5qkRp-5" target="bzgshtGKe2SA54a5qkRp-11">
          <mxGeometry relative="1" as="geometry" />
        </mxCell>
        <mxCell id="bzgshtGKe2SA54a5qkRp-44" style="edgeStyle=orthogonalEdgeStyle;curved=1;rounded=0;orthogonalLoop=1;jettySize=auto;html=1;entryX=0.995;entryY=0.63;entryDx=0;entryDy=0;entryPerimeter=0;fontSize=17;strokeColor=#009900;strokeWidth=2;" edge="1" parent="1" source="bzgshtGKe2SA54a5qkRp-5" target="bzgshtGKe2SA54a5qkRp-12">
          <mxGeometry relative="1" as="geometry" />
        </mxCell>
        <mxCell id="bzgshtGKe2SA54a5qkRp-5" value="nginx 172.29.204.80" style="aspect=fixed;perimeter=ellipsePerimeter;html=1;align=center;shadow=0;dashed=0;spacingTop=3;image;image=img/lib/active_directory/generic_server.svg;" vertex="1" parent="1">
          <mxGeometry x="544" y="550" width="28.000000000000004" height="50" as="geometry" />
        </mxCell>
        <mxCell id="bzgshtGKe2SA54a5qkRp-8" value="" style="rounded=0;whiteSpace=wrap;html=1;" vertex="1" parent="1">
          <mxGeometry x="160" y="410" width="120" height="210" as="geometry" />
        </mxCell>
        <mxCell id="bzgshtGKe2SA54a5qkRp-11" value="nibss-1" style="sketch=0;html=1;dashed=0;whitespace=wrap;fillColor=#2875E2;strokeColor=#ffffff;points=[[0.005,0.63,0],[0.1,0.2,0],[0.9,0.2,0],[0.5,0,0],[0.995,0.63,0],[0.72,0.99,0],[0.5,1,0],[0.28,0.99,0]];verticalLabelPosition=bottom;align=center;verticalAlign=top;shape=mxgraph.kubernetes.icon;prIcon=pod" vertex="1" parent="1">
          <mxGeometry x="195" y="434" width="50" height="48" as="geometry" />
        </mxCell>
        <mxCell id="bzgshtGKe2SA54a5qkRp-12" value="nibss-2" style="sketch=0;html=1;dashed=0;whitespace=wrap;fillColor=#2875E2;strokeColor=#ffffff;points=[[0.005,0.63,0],[0.1,0.2,0],[0.9,0.2,0],[0.5,0,0],[0.995,0.63,0],[0.72,0.99,0],[0.5,1,0],[0.28,0.99,0]];verticalLabelPosition=bottom;align=center;verticalAlign=top;shape=mxgraph.kubernetes.icon;prIcon=pod" vertex="1" parent="1">
          <mxGeometry x="195" y="525" width="50" height="48" as="geometry" />
        </mxCell>
        <mxCell id="bzgshtGKe2SA54a5qkRp-30" style="edgeStyle=orthogonalEdgeStyle;curved=1;rounded=0;orthogonalLoop=1;jettySize=auto;html=1;entryX=1;entryY=0.5;entryDx=0;entryDy=0;fontSize=17;" edge="1" parent="1" source="bzgshtGKe2SA54a5qkRp-18" target="bzgshtGKe2SA54a5qkRp-35">
          <mxGeometry relative="1" as="geometry">
            <mxPoint x="835" y="325" as="targetPoint" />
          </mxGeometry>
        </mxCell>
        <mxCell id="bzgshtGKe2SA54a5qkRp-18" value="nginx&amp;nbsp;10.7.1.4" style="aspect=fixed;perimeter=ellipsePerimeter;html=1;align=center;shadow=0;dashed=0;spacingTop=3;image;image=img/lib/active_directory/generic_server.svg;" vertex="1" parent="1">
          <mxGeometry x="1396" y="300" width="28.000000000000004" height="50" as="geometry" />
        </mxCell>
        <mxCell id="bzgshtGKe2SA54a5qkRp-21" style="edgeStyle=orthogonalEdgeStyle;rounded=0;orthogonalLoop=1;jettySize=auto;html=1;entryX=0.995;entryY=0.63;entryDx=0;entryDy=0;entryPerimeter=0;curved=1;" edge="1" parent="1" source="bzgshtGKe2SA54a5qkRp-3" target="bzgshtGKe2SA54a5qkRp-11">
          <mxGeometry relative="1" as="geometry" />
        </mxCell>
        <mxCell id="bzgshtGKe2SA54a5qkRp-23" value="" style="rounded=0;whiteSpace=wrap;html=1;fillColor=#d5e8d4;strokeColor=#82b366;" vertex="1" parent="1">
          <mxGeometry x="1350" y="530" width="120" height="210" as="geometry" />
        </mxCell>
        <mxCell id="bzgshtGKe2SA54a5qkRp-52" style="edgeStyle=orthogonalEdgeStyle;curved=1;rounded=0;orthogonalLoop=1;jettySize=auto;html=1;entryX=1;entryY=0.5;entryDx=0;entryDy=0;strokeColor=#009900;strokeWidth=2;fontSize=12;" edge="1" parent="1" source="bzgshtGKe2SA54a5qkRp-25" target="bzgshtGKe2SA54a5qkRp-47">
          <mxGeometry relative="1" as="geometry" />
        </mxCell>
        <mxCell id="bzgshtGKe2SA54a5qkRp-53" style="edgeStyle=orthogonalEdgeStyle;curved=1;rounded=0;orthogonalLoop=1;jettySize=auto;html=1;entryX=1;entryY=0.5;entryDx=0;entryDy=0;strokeColor=#009900;strokeWidth=2;fontSize=12;" edge="1" parent="1" source="bzgshtGKe2SA54a5qkRp-25" target="bzgshtGKe2SA54a5qkRp-48">
          <mxGeometry relative="1" as="geometry">
            <Array as="points">
              <mxPoint x="1270" y="575" />
              <mxPoint x="1270" y="665" />
            </Array>
          </mxGeometry>
        </mxCell>
        <mxCell id="bzgshtGKe2SA54a5qkRp-25" value="nginx&amp;nbsp;10.7.1.6" style="aspect=fixed;perimeter=ellipsePerimeter;html=1;align=center;shadow=0;dashed=0;spacingTop=3;image;image=img/lib/active_directory/generic_server.svg;" vertex="1" parent="1">
          <mxGeometry x="1396" y="550" width="28.000000000000004" height="50" as="geometry" />
        </mxCell>
        <mxCell id="bzgshtGKe2SA54a5qkRp-54" style="edgeStyle=orthogonalEdgeStyle;curved=1;rounded=0;orthogonalLoop=1;jettySize=auto;html=1;entryX=1;entryY=0.5;entryDx=0;entryDy=0;strokeColor=#009900;strokeWidth=2;fontSize=12;" edge="1" parent="1" source="bzgshtGKe2SA54a5qkRp-26" target="bzgshtGKe2SA54a5qkRp-47">
          <mxGeometry relative="1" as="geometry">
            <Array as="points">
              <mxPoint x="1210" y="665" />
              <mxPoint x="1210" y="575" />
            </Array>
          </mxGeometry>
        </mxCell>
        <mxCell id="bzgshtGKe2SA54a5qkRp-55" style="edgeStyle=orthogonalEdgeStyle;curved=1;rounded=0;orthogonalLoop=1;jettySize=auto;html=1;entryX=1;entryY=0.5;entryDx=0;entryDy=0;strokeColor=#009900;strokeWidth=2;fontSize=12;" edge="1" parent="1" source="bzgshtGKe2SA54a5qkRp-26" target="bzgshtGKe2SA54a5qkRp-48">
          <mxGeometry relative="1" as="geometry" />
        </mxCell>
        <mxCell id="bzgshtGKe2SA54a5qkRp-26" value="nginx&amp;nbsp;10.7.1.7" style="aspect=fixed;perimeter=ellipsePerimeter;html=1;align=center;shadow=0;dashed=0;spacingTop=3;image;image=img/lib/active_directory/generic_server.svg;" vertex="1" parent="1">
          <mxGeometry x="1396" y="640" width="28.000000000000004" height="50" as="geometry" />
        </mxCell>
        <mxCell id="bzgshtGKe2SA54a5qkRp-24" style="edgeStyle=orthogonalEdgeStyle;rounded=0;orthogonalLoop=1;jettySize=auto;html=1;entryX=0.995;entryY=0.63;entryDx=0;entryDy=0;entryPerimeter=0;curved=1;" edge="1" parent="1" source="bzgshtGKe2SA54a5qkRp-3" target="bzgshtGKe2SA54a5qkRp-12">
          <mxGeometry relative="1" as="geometry" />
        </mxCell>
        <mxCell id="bzgshtGKe2SA54a5qkRp-28" style="edgeStyle=orthogonalEdgeStyle;curved=1;rounded=0;orthogonalLoop=1;jettySize=auto;html=1;entryX=1;entryY=0.5;entryDx=0;entryDy=0;fontSize=17;" edge="1" parent="1" source="bzgshtGKe2SA54a5qkRp-27" target="bzgshtGKe2SA54a5qkRp-18">
          <mxGeometry relative="1" as="geometry" />
        </mxCell>
        <mxCell id="bzgshtGKe2SA54a5qkRp-36" style="edgeStyle=orthogonalEdgeStyle;curved=1;rounded=0;orthogonalLoop=1;jettySize=auto;html=1;entryX=1;entryY=0.5;entryDx=0;entryDy=0;fontSize=17;strokeColor=#009900;strokeWidth=2;" edge="1" parent="1" source="bzgshtGKe2SA54a5qkRp-27" target="bzgshtGKe2SA54a5qkRp-25">
          <mxGeometry relative="1" as="geometry" />
        </mxCell>
        <mxCell id="bzgshtGKe2SA54a5qkRp-37" style="edgeStyle=orthogonalEdgeStyle;curved=1;rounded=0;orthogonalLoop=1;jettySize=auto;html=1;entryX=1;entryY=0.5;entryDx=0;entryDy=0;fontSize=17;strokeColor=#009900;strokeWidth=2;" edge="1" parent="1" source="bzgshtGKe2SA54a5qkRp-27" target="bzgshtGKe2SA54a5qkRp-26">
          <mxGeometry relative="1" as="geometry" />
        </mxCell>
        <mxCell id="bzgshtGKe2SA54a5qkRp-27" value="Nibss" style="aspect=fixed;perimeter=ellipsePerimeter;html=1;align=center;shadow=0;dashed=0;spacingTop=3;image;image=img/lib/active_directory/server_farm.svg;fontStyle=1;fontSize=17;" vertex="1" parent="1">
          <mxGeometry x="1810" y="490" width="50" height="50" as="geometry" />
        </mxCell>
        <mxCell id="bzgshtGKe2SA54a5qkRp-31" style="edgeStyle=orthogonalEdgeStyle;curved=1;rounded=0;orthogonalLoop=1;jettySize=auto;html=1;entryX=1;entryY=0.5;entryDx=0;entryDy=0;fontSize=17;exitX=0;exitY=0.5;exitDx=0;exitDy=0;" edge="1" parent="1" source="bzgshtGKe2SA54a5qkRp-35" target="bzgshtGKe2SA54a5qkRp-3">
          <mxGeometry relative="1" as="geometry">
            <mxPoint x="730" y="325" as="sourcePoint" />
          </mxGeometry>
        </mxCell>
        <mxCell id="bzgshtGKe2SA54a5qkRp-40" style="edgeStyle=orthogonalEdgeStyle;curved=1;rounded=0;orthogonalLoop=1;jettySize=auto;html=1;entryX=1;entryY=0.5;entryDx=0;entryDy=0;fontSize=17;strokeColor=#009900;strokeWidth=2;" edge="1" parent="1" source="bzgshtGKe2SA54a5qkRp-33" target="bzgshtGKe2SA54a5qkRp-5">
          <mxGeometry relative="1" as="geometry" />
        </mxCell>
        <mxCell id="bzgshtGKe2SA54a5qkRp-41" style="edgeStyle=orthogonalEdgeStyle;curved=1;rounded=0;orthogonalLoop=1;jettySize=auto;html=1;entryX=1;entryY=0.5;entryDx=0;entryDy=0;fontSize=17;strokeColor=#009900;strokeWidth=2;" edge="1" parent="1" source="bzgshtGKe2SA54a5qkRp-33" target="bzgshtGKe2SA54a5qkRp-4">
          <mxGeometry relative="1" as="geometry" />
        </mxCell>
        <mxCell id="bzgshtGKe2SA54a5qkRp-33" value="国际专线 两条" style="shadow=0;dashed=0;html=1;strokeColor=none;fillColor=#4495D1;labelPosition=center;verticalLabelPosition=bottom;verticalAlign=top;align=center;outlineConnect=0;shape=mxgraph.veeam.vpn;fontSize=17;" vertex="1" parent="1">
          <mxGeometry x="738" y="608" width="77" height="54" as="geometry" />
        </mxCell>
        <mxCell id="bzgshtGKe2SA54a5qkRp-35" value="IP Sec VPN" style="aspect=fixed;perimeter=ellipsePerimeter;html=1;align=center;shadow=0;dashed=0;spacingTop=3;image;image=img/lib/active_directory/internet_globe.svg;fontSize=17;" vertex="1" parent="1">
          <mxGeometry x="765" y="300" width="50" height="50" as="geometry" />
        </mxCell>
        <mxCell id="bzgshtGKe2SA54a5qkRp-56" style="edgeStyle=orthogonalEdgeStyle;curved=1;rounded=0;orthogonalLoop=1;jettySize=auto;html=1;strokeColor=#009900;strokeWidth=2;fontSize=12;entryX=0.987;entryY=0.63;entryDx=0;entryDy=0;entryPerimeter=0;" edge="1" parent="1" source="bzgshtGKe2SA54a5qkRp-47" target="bzgshtGKe2SA54a5qkRp-33">
          <mxGeometry relative="1" as="geometry" />
        </mxCell>
        <mxCell id="bzgshtGKe2SA54a5qkRp-47" value="nginx 10.220.1.2" style="aspect=fixed;perimeter=ellipsePerimeter;html=1;align=center;shadow=0;dashed=0;spacingTop=3;image;image=img/lib/active_directory/generic_server.svg;fontSize=12;" vertex="1" parent="1">
          <mxGeometry x="1040" y="550" width="28.000000000000004" height="50" as="geometry" />
        </mxCell>
        <mxCell id="bzgshtGKe2SA54a5qkRp-57" style="edgeStyle=orthogonalEdgeStyle;curved=1;rounded=0;orthogonalLoop=1;jettySize=auto;html=1;strokeColor=#009900;strokeWidth=2;fontSize=12;" edge="1" parent="1" source="bzgshtGKe2SA54a5qkRp-48">
          <mxGeometry relative="1" as="geometry">
            <mxPoint x="820" y="640" as="targetPoint" />
          </mxGeometry>
        </mxCell>
        <mxCell id="bzgshtGKe2SA54a5qkRp-48" value="nginx 10.220.1.3" style="aspect=fixed;perimeter=ellipsePerimeter;html=1;align=center;shadow=0;dashed=0;spacingTop=3;image;image=img/lib/active_directory/generic_server.svg;fontSize=12;" vertex="1" parent="1">
          <mxGeometry x="1040" y="640" width="28.000000000000004" height="50" as="geometry" />
        </mxCell>
      </root>
    </mxGraphModel>
  </diagram>
</mxfile>
